# xmcd
#
# Track frame offsets: 
#        150
#        20525
#        33178
#
# Disc length: 655 seconds
#
# Revision: 0
# Processed by: cddbd v1.5.2PL0 Copyright (c) Steve Scherf et al.
# Submitted via: ExactAudioCopy v0.99pb4
#
DISCID=18028d03
DTITLE=Tift Merritt - Another Country
DYEAR=2008
DGENRE=Country
TTITLE0=Harder Feeling
TTITLE1=Who Loves the Sun
TTITLE2=Broken (Solo Acoustic)
EXTD=
EXTT0=
EXTT1=
EXTT2=
PLAYORDER=
